<?xml version="1.0" encoding="UTF-8" standalone="no"?>
<svg
   xmlns:dc="http://purl.org/dc/elements/1.1/"
   xmlns:cc="http://creativecommons.org/ns#"
   xmlns:rdf="http://www.w3.org/1999/02/22-rdf-syntax-ns#"
   xmlns:svg="http://www.w3.org/2000/svg"
   xmlns="http://www.w3.org/2000/svg"
   xmlns:sodipodi="http://sodipodi.sourceforge.net/DTD/sodipodi-0.dtd"
   xmlns:inkscape="http://www.inkscape.org/namespaces/inkscape"
   version="1.1"
   id="svg2"
   xml:space="preserve"
   width="489.51999"
   height="402.16"
   viewBox="0 0 489.51999 402.16"
   sodipodi:docname="shutterstock_1024090954.eps"><metadata
     id="metadata8"><rdf:RDF><cc:Work
         rdf:about=""><dc:format>image/svg+xml</dc:format><dc:type
           rdf:resource="http://purl.org/dc/dcmitype/StillImage" /></cc:Work></rdf:RDF></metadata><defs
     id="defs6"><clipPath
       clipPathUnits="userSpaceOnUse"
       id="clipPath136"><path
         d="m 1097.34,1371.46 c -15.49,0 -30.99,1.8 -46.3,5.54 -117.032,28.48 -178.106,159.75 -136.337,293.03 36.285,115.77 138.287,195.03 241.137,195.03 15.52,0 31.05,-1.8 46.39,-5.55 116.91,-28.6 177.95,-159.77 136.32,-293.04 -36.37,-115.74 -138.35,-195.01 -241.21,-195.01 m 41.31,384.87 c -67.01,0 -135.46,-51.06 -163.611,-127.43 -33.262,-89.95 1.977,-180.85 78.641,-203.08 11.52,-3.34 23.33,-4.94 35.17,-4.94 66.94,-0.01 135.51,51.03 163.79,127.4 33.2,89.94 -2.04,180.83 -78.73,203.1 -11.55,3.35 -23.38,4.95 -35.26,4.95"
         id="path134" /></clipPath><radialGradient
       fx="0"
       fy="0"
       cx="0"
       cy="0"
       r="1"
       gradientUnits="userSpaceOnUse"
       gradientTransform="matrix(241.003,-58.8508,-68.2389,-217.829,1126.63,1618.26)"
       spreadMethod="pad"
       id="radialGradient144"><stop
         style="stop-opacity:1;stop-color:#ffffff"
         offset="0"
         id="stop138" /><stop
         style="stop-opacity:1;stop-color:#ffffff"
         offset="0.650538"
         id="stop140" /><stop
         style="stop-opacity:1;stop-color:#dddad6"
         offset="1"
         id="stop142" /></radialGradient><clipPath
       clipPathUnits="userSpaceOnUse"
       id="clipPath156"><path
         d="m 1088.85,1420.88 c -11.84,0 -23.65,1.6 -35.17,4.94 -76.664,22.23 -111.903,113.13 -78.641,203.08 28.151,76.37 96.601,127.43 163.611,127.43 11.88,0 23.71,-1.6 35.26,-4.95 76.69,-22.27 111.93,-113.16 78.73,-203.1 -28.28,-76.37 -96.85,-127.41 -163.79,-127.4 m 8.67,32.58 c -0.26,-9.71 5.83,-18.86 15.59,-22.12 2.4,-0.79 4.84,-1.17 7.23,-1.17 9.53,0 18.4,5.98 21.52,15.44 1.63,4.9 1.48,9.98 -0.11,14.51 34.19,12.61 64.01,41.71 77.63,80.27 22.06,61.84 -5.81,124.69 -62.05,140.29 -8.62,2.39 -17.42,3.53 -26.2,3.53 -0.68,0 -1.36,0 -2.04,-0.02 -0.41,15.71 -10.59,30.23 -26.46,35.52 -4.06,1.35 -8.18,1.98 -12.23,1.98 -16.13,0 -31.14,-10.13 -36.47,-26.17 -4.33,-12.95 -1.29,-26.57 6.83,-36.41 -19.75,-15.2 -35.85,-36.57 -44.9,-62.08 -21.934,-61.75 5.83,-124.52 62.09,-140.25 6.45,-1.79 13,-2.88 19.57,-3.32"
         id="path154" /></clipPath><radialGradient
       fx="0"
       fy="0"
       cx="0"
       cy="0"
       r="1"
       gradientUnits="userSpaceOnUse"
       gradientTransform="matrix(-159.701,49.3148,-56.6707,-144.463,1113.84,1588.59)"
       spreadMethod="pad"
       id="radialGradient166"><stop
         style="stop-opacity:1;stop-color:#ffffff"
         offset="0"
         id="stop158" /><stop
         style="stop-opacity:1;stop-color:#ffffff"
         offset="0.173469"
         id="stop160" /><stop
         style="stop-opacity:1;stop-color:#7ecb2c"
         offset="0.959184"
         id="stop162" /><stop
         style="stop-opacity:1;stop-color:#7ecb2c"
         offset="1"
         id="stop164" /></radialGradient><clipPath
       clipPathUnits="userSpaceOnUse"
       id="clipPath178"><path
         d="m 1060.76,1659.11 c -8.12,9.84 -11.16,23.46 -6.83,36.41 5.33,16.04 20.34,26.17 36.47,26.17 4.05,0 8.17,-0.63 12.23,-1.98 15.87,-5.29 26.05,-19.81 26.46,-35.52 -24.17,-0.48 -48.15,-9.56 -68.33,-25.08"
         id="path176" /></clipPath><clipPath
       clipPathUnits="userSpaceOnUse"
       id="clipPath184"><path
         d="m 1049.6,1659.11 h 79.4883 v 62.582 H 1049.6 Z"
         id="path182" /></clipPath><radialGradient
       fx="0"
       fy="0"
       cx="0"
       cy="0"
       r="1"
       gradientUnits="userSpaceOnUse"
       gradientTransform="matrix(-159.701,49.3148,-56.6707,-144.463,1113.84,1588.59)"
       spreadMethod="pad"
       id="radialGradient194"><stop
         style="stop-opacity:1;stop-color:#ffffff"
         offset="0"
         id="stop186" /><stop
         style="stop-opacity:1;stop-color:#ffffff"
         offset="0.173469"
         id="stop188" /><stop
         style="stop-opacity:1;stop-color:#daf0b8"
         offset="0.959184"
         id="stop190" /><stop
         style="stop-opacity:1;stop-color:#daf0b8"
         offset="1"
         id="stop192" /></radialGradient><clipPath
       clipPathUnits="userSpaceOnUse"
       id="clipPath206"><path
         d="m 1120.34,1430.17 c -2.39,0 -4.83,0.38 -7.23,1.17 -9.76,3.26 -15.85,12.41 -15.59,22.12 2.21,-0.15 4.44,-0.22 6.65,-0.22 12.73,0 25.43,2.4 37.58,6.88 1.59,-4.53 1.74,-9.61 0.11,-14.51 -3.12,-9.46 -11.99,-15.44 -21.52,-15.44"
         id="path204" /></clipPath><radialGradient
       fx="0"
       fy="0"
       cx="0"
       cy="0"
       r="1"
       gradientUnits="userSpaceOnUse"
       gradientTransform="matrix(-159.701,49.3148,-56.6707,-144.463,1113.84,1588.59)"
       spreadMethod="pad"
       id="radialGradient216"><stop
         style="stop-opacity:1;stop-color:#ffffff"
         offset="0"
         id="stop208" /><stop
         style="stop-opacity:1;stop-color:#ffffff"
         offset="0.173469"
         id="stop210" /><stop
         style="stop-opacity:1;stop-color:#cae99e"
         offset="0.959184"
         id="stop212" /><stop
         style="stop-opacity:1;stop-color:#cae99e"
         offset="1"
         id="stop214" /></radialGradient><clipPath
       clipPathUnits="userSpaceOnUse"
       id="clipPath230"><path
         d="m 566.129,1550.95 c -39.703,0 -75.684,14.17 -101.527,43.51 -63.797,72.39 -41.766,209.94 49.16,307.26 54.125,57.8 120.453,88.32 178.754,88.32 39.675,0 75.644,-14.15 101.476,-43.46 63.93,-72.33 41.926,-209.96 -49.027,-307.17 -54.152,-57.9 -120.516,-88.46 -178.836,-88.46 m 105.734,335.58 c -41.222,0 -88.867,-23.78 -126.558,-67.62 -59.563,-69.39 -71.645,-162.67 -27.137,-208.33 16.398,-16.79 38.18,-24.82 62.141,-24.82 41.222,0 88.886,23.79 126.601,67.65 59.637,69.3 71.797,162.54 27.153,208.28 -16.426,16.8 -38.223,24.84 -62.2,24.84"
         id="path228" /></clipPath><radialGradient
       fx="0"
       fy="0"
       cx="0"
       cy="0"
       r="1"
       gradientUnits="userSpaceOnUse"
       gradientTransform="matrix(-131.473,149.145,-148.695,-158.954,629.297,1770.53)"
       spreadMethod="pad"
       id="radialGradient238"><stop
         style="stop-opacity:1;stop-color:#ffffff"
         offset="0"
         id="stop232" /><stop
         style="stop-opacity:1;stop-color:#ffffff"
         offset="0.650538"
         id="stop234" /><stop
         style="stop-opacity:1;stop-color:#dddad6"
         offset="1"
         id="stop236" /></radialGradient><clipPath
       clipPathUnits="userSpaceOnUse"
       id="clipPath250"><path
         d="m 580.309,1585.76 c -23.961,0 -45.743,8.03 -62.141,24.82 -44.508,45.66 -32.426,138.94 27.137,208.33 37.691,43.84 85.336,67.62 126.558,67.62 23.977,0 45.774,-8.04 62.2,-24.84 44.644,-45.74 32.484,-138.98 -27.153,-208.28 -37.715,-43.86 -85.379,-67.65 -126.601,-67.65 m 39.886,26.91 c 0.86,-2.19 2.164,-4.17 3.922,-5.81 3.09,-2.88 7.078,-4.28 11.254,-4.28 5.774,0 11.906,2.67 16.531,7.81 4.735,5.19 6.868,11.74 6.325,17.64 10.957,6.89 21.503,15.83 31.07,26.71 41.269,46.97 48.691,112.49 16.508,146.41 -8.903,9.4 -19.922,15.37 -32.086,18.09 -0.246,7.76 -3.141,15.01 -8.727,20.26 -5.234,4.85 -11.969,7.21 -19.023,7.21 -9.793,0 -20.203,-4.54 -28.086,-13.24 -7.356,-8.07 -10.992,-18.11 -10.805,-27.46 -12.133,-7.13 -23.832,-16.76 -34.344,-28.74 -41.214,-46.87 -48.714,-112.48 -16.464,-146.34 12.718,-13.35 29.679,-19.78 48.089,-19.78 5.184,0 10.485,0.51 15.836,1.52"
         id="path248" /></clipPath><radialGradient
       fx="0"
       fy="0"
       cx="0"
       cy="0"
       r="1"
       gradientUnits="userSpaceOnUse"
       gradientTransform="matrix(95.2885,-93.7283,-94.6217,-113.907,626.099,1736.15)"
       spreadMethod="pad"
       id="radialGradient260"><stop
         style="stop-opacity:1;stop-color:#ffffff"
         offset="0"
         id="stop252" /><stop
         style="stop-opacity:1;stop-color:#ffffff"
         offset="0.173469"
         id="stop254" /><stop
         style="stop-opacity:1;stop-color:#7ecb2c"
         offset="0.959184"
         id="stop256" /><stop
         style="stop-opacity:1;stop-color:#7ecb2c"
         offset="1"
         id="stop258" /></radialGradient><clipPath
       clipPathUnits="userSpaceOnUse"
       id="clipPath272"><path
         d="m 607.078,1806.01 c -0.187,9.35 3.449,19.39 10.805,27.46 7.883,8.7 18.293,13.24 28.086,13.24 7.054,0 13.789,-2.36 19.023,-7.21 5.586,-5.25 8.481,-12.5 8.727,-20.26 -5.137,1.15 -10.477,1.72 -15.946,1.72 -16.394,0 -33.957,-5.1 -50.695,-14.95"
         id="path270" /></clipPath><radialGradient
       fx="0"
       fy="0"
       cx="0"
       cy="0"
       r="1"
       gradientUnits="userSpaceOnUse"
       gradientTransform="matrix(95.2885,-93.7283,-94.6217,-113.907,626.099,1736.15)"
       spreadMethod="pad"
       id="radialGradient282"><stop
         style="stop-opacity:1;stop-color:#ffffff"
         offset="0"
         id="stop274" /><stop
         style="stop-opacity:1;stop-color:#ffffff"
         offset="0.173469"
         id="stop276" /><stop
         style="stop-opacity:1;stop-color:#daf0b8"
         offset="0.959184"
         id="stop278" /><stop
         style="stop-opacity:1;stop-color:#daf0b8"
         offset="1"
         id="stop280" /></radialGradient><clipPath
       clipPathUnits="userSpaceOnUse"
       id="clipPath294"><path
         d="m 635.371,1602.58 c -4.176,0 -8.164,1.4 -11.254,4.28 -1.758,1.64 -3.062,3.62 -3.922,5.81 12.66,2.38 25.61,7.55 38.032,15.36 0.543,-5.9 -1.59,-12.45 -6.325,-17.64 -4.625,-5.14 -10.757,-7.81 -16.531,-7.81"
         id="path292" /></clipPath><radialGradient
       fx="0"
       fy="0"
       cx="0"
       cy="0"
       r="1"
       gradientUnits="userSpaceOnUse"
       gradientTransform="matrix(95.2885,-93.7283,-94.6217,-113.907,626.099,1736.15)"
       spreadMethod="pad"
       id="radialGradient304"><stop
         style="stop-opacity:1;stop-color:#ffffff"
         offset="0"
         id="stop296" /><stop
         style="stop-opacity:1;stop-color:#ffffff"
         offset="0.173469"
         id="stop298" /><stop
         style="stop-opacity:1;stop-color:#cae99e"
         offset="0.959184"
         id="stop300" /><stop
         style="stop-opacity:1;stop-color:#cae99e"
         offset="1"
         id="stop302" /></radialGradient></defs><sodipodi:namedview
     pagecolor="#ffffff"
     bordercolor="#666666"
     borderopacity="1"
     objecttolerance="10"
     gridtolerance="10"
     guidetolerance="10"
     inkscape:pageopacity="0"
     inkscape:pageshadow="2"
     inkscape:window-width="640"
     inkscape:window-height="480"
     id="namedview4" /><g
     id="g10"
     inkscape:groupmode="layer"
     inkscape:label="ink_ext_XXXXXX"
     transform="matrix(1.3333333,0,0,-1.3333333,0,402.16)"><g
       id="g12"
       transform="scale(0.1)"><path
         d="M 3655.6,490.219 C 3726.02,347.691 3591.21,79.3516 2619.86,14.6016 1648.5,-50.1602 208.422,113.191 137.992,255.711 67.5742,398.219 797.91,566.262 1769.27,631.012 2740.63,695.77 3585.16,632.73 3655.6,490.219"
         style="fill:#e9e8e7;fill-opacity:1;fill-rule:nonzero;stroke:none"
         id="path14" /><path
         d="m 2369.6,565.559 c -149.83,206.711 -356.84,655.801 -451.62,753.581 -94.33,97.31 -158.59,-228.75 -216.7,-373.031 -0.24,-0.57 23.09,-8.629 33.48,5.539 40.46,55.152 145.19,319.812 145.19,319.812 26.72,-97.34 241.39,-517.288 472.03,-759.499 0,0 77.53,-26.82 189.18,44.59 -74.39,70.879 -132.44,83.34 -171.56,9.008"
         style="fill:#d54423;fill-opacity:1;fill-rule:nonzero;stroke:none"
         id="path16" /><path
         d="m 2369.6,565.559 c -149.83,206.711 -356.84,655.801 -451.62,753.581 -94.33,97.31 -158.59,-228.75 -216.7,-373.031 -0.24,-0.57 14.96,9.321 25.35,23.481 40.46,55.15 162.08,343.99 162.08,343.99 26.71,-97.35 261.26,-492.4 462.76,-767.369 0,0 23.14,-40.082 189.69,10.34 -74.39,70.879 -132.44,83.34 -171.56,9.008"
         style="fill:#ec531d;fill-opacity:1;fill-rule:nonzero;stroke:none"
         id="path18" /><path
         d="m 2452.96,613.699 c -31.77,7.59 -58.58,-5.019 -80.03,-42.097 31.73,-9.672 66.54,12.519 80.03,42.097"
         style="fill:#f47349;fill-opacity:1;fill-rule:nonzero;stroke:none"
         id="path20" /><path
         d="m 1871.94,1334.88 c -60.53,-21.6 -107.81,-206.3 -150.56,-333.36 1.56,3.4 3.02,6.81 4.37,10.26 48.94,107.68 70.5,215.78 146.19,323.1"
         style="fill:#f47349;fill-opacity:1;fill-rule:nonzero;stroke:none"
         id="path22" /><path
         d="m 2352.82,513.281 c 1.94,-0.621 12.34,-3.64 29.29,-4.5 34.2,-1.742 89.02,5.211 156.6,48.008 -39.38,37.242 -71.97,56.031 -99.57,57.441 -27.68,1.391 -49.99,-14.75 -68.21,-49.359 l -1.13,-2.152 -1.42,1.972 C 2295.63,665.07 2211,819.621 2129.16,969.09 c -84.14,153.67 -163.61,298.81 -212.26,349 -10.64,10.97 -21.3,16.81 -31.69,17.34 -54.93,2.77 -99.86,-138.74 -139.49,-263.6 -14.8,-46.6 -28.79,-90.67 -42.52,-124.978 1.82,-0.633 5.84,-1.743 10.66,-1.981 6.18,-0.32 14.62,0.75 19.68,7.668 39.89,54.361 143.96,316.831 145,319.471 l 1.67,4.2 1.19,-4.35 c 13.23,-48.22 72.24,-175.36 159.4,-325.059 102.18,-175.52 212.98,-329.469 312.02,-433.52 z m 29.15,-7.519 -0.01,-0.012 c -19.27,0.992 -30.02,4.629 -30.46,4.789 l -0.35,0.109 -0.26,0.274 c -127.2,133.59 -240.26,309.949 -312.7,434.359 -84.85,145.719 -143.07,270.199 -158.48,321.529 -13.47,-33.78 -106.38,-265.15 -143.74,-316.06 -5.86,-7.988 -15.34,-9.258 -22.26,-8.898 -5.78,0.296 -12.82,2.046 -13.69,3.41 l -0.42,0.668 0.28,0.75 c 13.86,34.39 28,78.92 42.96,126.07 39.97,125.89 85.27,268.58 142.52,265.68 11.18,-0.56 22.52,-6.7 33.7,-18.24 48.94,-50.48 128.5,-195.8 212.74,-349.639 81.27,-148.43 165.29,-301.871 237.6,-402.141 18.62,34.281 41.5,50.27 69.89,48.82 28.68,-1.449 62.35,-20.941 102.89,-59.589 l 1.4,-1.321 -1.61,-1.05 c -69.01,-44.129 -125.1,-51.29 -160,-49.508"
         style="fill:#ac2c22;fill-opacity:1;fill-rule:nonzero;stroke:none"
         id="path24" /><path
         d="m 1134.64,492.512 c 138.39,287.398 208.14,766.718 309.15,910.278 100.53,142.86 214.5,-358.33 359.77,-507.149 0.59,-0.602 -49.02,-7.832 -70.26,5.3 -82.66,51.079 -229.76,450.399 -229.76,450.399 0,-121.38 -234.65,-603.559 -312.74,-902.949 0,0 -222.015,-78.27 -417.112,-31.012 81.671,105.883 272.472,148.871 360.952,75.133"
         style="fill:#d54423;fill-opacity:1;fill-rule:nonzero;stroke:none"
         id="path26" /><path
         d="m 1134.64,492.512 c 138.39,287.398 208.14,766.718 309.15,910.278 100.53,142.86 214.5,-358.33 359.77,-507.149 0.59,-0.602 -36.97,43.25 -58.2,56.379 -82.65,51.06 -241.81,431.62 -241.81,431.62 0,-121.4 -254.38,-610.261 -332.48,-909.648 0,0 -273.238,-73.594 -397.382,-56.613 81.671,105.883 272.472,148.871 360.952,75.133"
         style="fill:#ec531d;fill-opacity:1;fill-rule:nonzero;stroke:none"
         id="path28" /><path
         d="m 817.895,461.18 c 78.14,8.992 153.351,37.562 227.915,66.402 -74.341,8.816 -164.052,-16.793 -227.915,-66.402"
         style="fill:#f47349;fill-opacity:1;fill-rule:nonzero;stroke:none"
         id="path30" /><path
         d="m 1504.76,1393.31 c 59.8,-62.79 80.2,-155.12 140.36,-218.14 -74.68,164.53 -140.47,314.11 -201.33,227.62 -2.26,-3.21 -4.49,-6.65 -6.72,-10.19 26.86,10.65 53.47,17.3 67.69,0.71"
         style="fill:#f47349;fill-opacity:1;fill-rule:nonzero;stroke:none"
         id="path32" /><path
         d="m 776.859,418.48 c 40.696,-9.589 85.7,-14.46 133.809,-14.46 140.712,0 266.732,41.71 278.622,45.769 37.44,143.133 111.29,329.852 176.45,494.641 72.97,184.53 135.99,343.91 135.99,406.91 v 10.18 l 3.51,-9.55 c 1.47,-3.99 147.83,-399.329 229.01,-449.478 10.1,-6.25 26.98,-7.551 39.36,-7.551 11.46,0 21.58,1.071 26.38,1.801 -58.41,61.387 -110.58,176.378 -161.05,287.648 -56.44,124.42 -109.74,241.93 -157.56,241.93 -12.66,0 -24.47,-8.04 -36.11,-24.57 -50.7,-72.07 -92.71,-226.16 -141.36,-404.59 -46.36,-169.988 -98.9,-362.668 -167.63,-505.43 l -1.01,-2.089 -1.79,1.48 c -28.6,23.84 -69.22,36.438 -117.46,36.438 -90.266,0 -188.122,-44.727 -239.161,-109.079 z m 133.809,-18.082 c -49.48,0 -95.711,5.122 -137.406,15.223 l -2.715,0.66 1.703,2.199 c 51.18,66.352 151.422,112.692 243.77,112.692 48.11,0 88.84,-12.363 117.98,-35.793 68.11,142.262 120.32,333.723 166.41,502.742 48.74,178.749 90.83,333.129 141.9,405.709 12.19,17.33 25.34,26.11 39.07,26.11 50.16,0 101.46,-113.09 160.87,-244.05 50.99,-112.42 103.72,-228.671 162.61,-288.98 l 0.84,-0.859 -0.47,-1.129 c -1.2,-2.852 -28.05,-3.613 -31.62,-3.613 -12.85,0 -30.44,1.402 -41.26,8.082 -76.55,47.3 -205.09,383.409 -227.37,442.869 -5.27,-68.89 -66.02,-222.52 -135.87,-399.17 -65.27,-165.051 -139.24,-352.121 -176.55,-495.149 l -0.25,-0.941 -0.91,-0.328 c -1.31,-0.461 -132.98,-46.274 -280.732,-46.274"
         style="fill:#ac2c22;fill-opacity:1;fill-rule:nonzero;stroke:none"
         id="path34" /><path
         d="M 1570.52,838.051 C 1332.83,1050.19 1225.45,1204.34 1080.34,1147.72 935.234,1091.09 480.445,622.148 372.496,353.172 303.484,422.191 149.531,390.332 85.8203,291.242 238.008,247 413.199,321.32 413.199,321.32 680.41,847.879 1138.74,1015 1140.51,1082.25 1250.21,949.52 1662.22,756.191 1570.52,838.051"
         style="fill:#c23423;fill-opacity:1;fill-rule:nonzero;stroke:none"
         id="path36" /><path
         d="m 372.496,353.172 c 107.949,268.976 562.738,737.918 707.844,794.548 145.11,56.62 252.49,-97.53 490.18,-309.669 2.64,-2.379 4.83,-4.492 6.66,-6.403 -160.59,47.653 -313.64,151.172 -440.7,264.492 1.64,-4.92 3.28,-9.83 4.78,-14.78 l -0.75,0.89 C 1138.74,1015 680.41,847.879 413.199,321.32 c 0,0 -175.191,-74.32 -327.3787,-30.078 63.7107,99.09 217.6637,130.949 286.6757,61.93"
         style="fill:#d54423;fill-opacity:1;fill-rule:nonzero;stroke:none"
         id="path38" /><path
         d="m 95.2578,304.461 c 68.3552,88.559 211.4062,114.551 277.2382,48.711 107.949,268.976 562.738,737.918 707.844,794.548 145.11,56.62 262.5,-86.82 490.18,-309.669 49.44,-48.403 -313.44,148.031 -423.15,280.749 -1.75,-66.72 -458.819,-198.581 -732.667,-769.839 -93.808,-66.02 -210.918,-52.152 -319.4452,-44.5"
         style="fill:#ec531d;fill-opacity:1;fill-rule:nonzero;stroke:none"
         id="path40" /><path
         d="m 201.25,378.082 c 56.762,19.078 117.973,15.938 158.75,-14.223 -3.215,-2.07 -6.73,-3.461 -10.586,-4.019 -49.391,-10.969 -98.773,2.961 -148.164,18.242"
         style="fill:#f47349;fill-opacity:1;fill-rule:nonzero;stroke:none"
         id="path42" /><path
         d="m 1060.47,1138.42 c 7.12,3.77 13.79,6.92 19.87,9.3 145.11,56.62 252.49,-97.53 490.18,-309.669 9.37,-8.371 13.4,-13.821 13.11,-16.789 -142.85,112.5 -240.4,214.088 -406.34,316.588 -21.3,13.15 -89.97,4.53 -116.82,0.57"
         style="fill:#f47349;fill-opacity:1;fill-rule:nonzero;stroke:none"
         id="path44" /><path
         d="m 1028.56,986.801 c 66.01,45.689 109.61,75.879 110.13,95.499 l 0.13,4.84 3.08,-3.74 c 90.27,-109.189 391.91,-263.091 436.43,-263.091 2.52,0 3.41,0.562 3.54,0.89 0.13,0.321 0.83,3.531 -12.56,15.492 -50.15,44.75 -95.02,87.438 -134.62,125.098 -124.05,117.981 -206.01,195.931 -294.51,195.931 -19.67,0 -39.03,-3.82 -59.18,-11.68 C 1010.7,1118.6 863.145,991.141 713.816,828.859 546.484,647 422.695,473.379 374.184,352.5 l -1.024,-2.551 -1.945,1.942 c -23.445,23.449 -58.77,36.359 -99.461,36.359 -71.766,0 -144.984,-38.469 -183.0665,-95.961 31.3005,-8.82 65.9685,-13.297 103.0895,-13.297 111.055,0 211.399,40.168 220.114,43.75 185.808,365.77 466.074,559.797 616.669,664.059 z M 85.3164,289.492 l -2.3281,0.68 1.3086,2.047 c 38.3241,59.601 113.6561,99.652 187.4571,99.652 40.555,0 75.961,-12.57 100.078,-35.512 49.363,121.161 172.856,294.039 339.316,474.95 149.672,162.652 297.772,290.491 368.532,318.101 20.58,8.03 40.36,11.94 60.5,11.94 89.95,0 172.32,-78.35 297.01,-196.94 39.58,-37.629 84.43,-80.281 134.53,-125.012 13.87,-12.378 14.52,-16.918 13.53,-19.5 -0.81,-2.136 -3.15,-3.218 -6.92,-3.218 -44.45,0 -342.86,151.789 -436.63,261.32 -5.39,-21.02 -46.19,-49.27 -111.07,-94.191 C 880.211,879.691 600.219,685.852 414.82,320.512 l -0.304,-0.61 -0.61,-0.254 c -1.047,-0.437 -105.722,-44.289 -222.129,-44.289 -38.394,0.02 -74.214,4.762 -106.4606,14.133"
         style="fill:#ac2c22;fill-opacity:1;fill-rule:nonzero;stroke:none"
         id="path46" /><path
         d="m 1954.42,1205.82 c -39.74,470.13 453.51,931.25 927.97,968.22 474.44,36.98 723.38,-360.64 438.83,-717.51 -372.86,-467.6 -1321.4,-787.87 -1366.8,-250.71"
         style="fill:#c23423;fill-opacity:1;fill-rule:nonzero;stroke:none"
         id="path48" /><path
         d="m 2664.17,1148.95 c 341.62,146.84 729.57,434.36 716.04,823.66 -88.27,133.88 -266.13,219.49 -497.82,201.43 -474.46,-36.97 -967.71,-498.09 -927.97,-968.22 2.75,-32.57 8.88,-61.92 17.95,-88.34 91.34,-163.281 459.73,-66.23 691.8,31.47"
         style="fill:#d54423;fill-opacity:1;fill-rule:nonzero;stroke:none"
         id="path50" /><path
         d="m 3191.66,1619.37 c 101.83,107.78 171.89,257.94 150.37,402.12 -96.47,105.19 -257.58,168.3 -459.64,152.55 -474.46,-36.97 -967.71,-498.09 -927.97,-968.22 1.87,-22.2 5.43,-42.79 10.29,-62.12 54.22,-28.92 116.8,-44.6 187.97,-41.43 416.19,18.58 765.4,210.9 1038.98,517.1"
         style="fill:#ec531d;fill-opacity:1;fill-rule:nonzero;stroke:none"
         id="path52" /><path
         d="m 2988.59,2175.02 c -33.95,2.14 -69.4,1.9 -106.2,-0.98 -450.11,-35.06 -917.06,-451.88 -929.88,-895.97 24.29,76.37 55.91,150.34 91.7,220.73 184.38,361.66 563.91,560.72 944.38,676.22"
         style="fill:#f47349;fill-opacity:1;fill-rule:nonzero;stroke:none"
         id="path54" /><path
         d="m 2766.52,2153.21 c -412.69,-90.28 -846.25,-501.42 -808.58,-947.1 7.95,-94.12 44.23,-165.61 107.79,-212.508 91.85,-67.75 236.7,-82.512 418.87,-42.653 305.92,66.911 648.81,275.721 833.85,507.791 124.96,156.72 153.73,336.71 76.96,481.46 -84.94,160.09 -281.4,248.35 -512.74,230.32 -38.13,-2.97 -77.21,-8.8 -116.15,-17.31 z M 2486.12,944.031 c -184.23,-40.289 -331.06,-25.133 -424.6,43.879 -65.27,48.15 -102.49,121.37 -110.63,217.61 -17.23,203.9 64.36,418.49 229.75,604.25 156.36,175.62 369.36,303.32 584.36,350.35 39.26,8.58 78.66,14.47 117.11,17.46 234.19,18.24 433.28,-71.44 519.54,-234.06 78.15,-147.33 49.11,-330.2 -77.68,-489.2 -185.96,-233.21 -530.5,-443.05 -837.85,-510.289"
         style="fill:#67171a;fill-opacity:1;fill-rule:nonzero;stroke:none"
         id="path56" /><path
         d="m 2195.46,1820.83 c 367.23,-92 543.98,-585.37 443.38,-829.111 82.79,29.211 166.72,67.231 247.82,112.061 137.31,266.36 -186.3,917.73 -511.62,875.28 -65.22,-46.55 -125.83,-99.81 -179.58,-158.23"
         style="fill:#271514;fill-opacity:1;fill-rule:nonzero;stroke:none"
         id="path58" /><path
         d="m 2829.22,2168 c -70.43,-10.11 -140.82,-29.02 -209.36,-55.75 268.1,-20.99 580.65,-367.76 548.87,-812.78 57.1,49.58 108.8,102.27 152.49,157.06 6.72,8.43 13.05,16.9 19.18,25.37 37.6,224.11 -164.31,672.38 -511.18,686.1"
         style="fill:#271514;fill-opacity:1;fill-rule:nonzero;stroke:none"
         id="path60" /><path
         d="m 2375.04,1979.06 c -65.22,-46.55 -125.83,-99.81 -179.58,-158.23 298.69,-74.84 471.35,-415.17 471.28,-670.77 83.4,35.99 169.47,80.36 251.72,132.52 -13.34,303.2 -277.8,731.15 -543.42,696.48"
         style="fill:#311716;fill-opacity:1;fill-rule:nonzero;stroke:none"
         id="path62" /><path
         d="m 3320.82,1697.75 c -61.5,217.36 -237.72,460.2 -491.6,470.25 -70.43,-10.11 -140.82,-29.02 -209.36,-55.75 231.02,-18.09 495.04,-278.1 543.3,-634.42 64.86,66.65 119.4,140.12 157.66,219.92"
         style="fill:#311716;fill-opacity:1;fill-rule:nonzero;stroke:none"
         id="path64" /><path
         d="m 2375.04,1979.06 c -65.22,-46.55 -125.83,-99.81 -179.58,-158.23 271.15,-67.93 438.43,-354.69 466.91,-598.2 86.56,38.91 168.93,86.58 246.98,142.12 -50.58,292.47 -291.95,645.94 -534.31,614.31"
         style="fill:#5a261e;fill-opacity:1;fill-rule:nonzero;stroke:none"
         id="path66" /><path
         d="m 3296.56,1769.65 c -76.72,195.79 -241.22,389.4 -467.34,398.35 -70.43,-10.11 -140.82,-29.02 -209.36,-55.75 210.67,-16.49 448.75,-234.16 525.67,-542.57 15.59,16.22 31,32.75 46.13,49.69 41.66,44.09 77.96,95.31 104.9,150.28"
         style="fill:#5a261e;fill-opacity:1;fill-rule:nonzero;stroke:none"
         id="path68" /><path
         d="m 2375.04,1979.06 c -65.22,-46.55 -125.83,-99.81 -179.58,-158.23 26.2,-6.56 51.39,-15.24 75.63,-25.66 68.83,63.74 145.32,119.57 226.78,168.68 -40.29,14.77 -81.55,20.6 -122.83,15.21"
         style="fill:#73272e;fill-opacity:1;fill-rule:nonzero;stroke:none"
         id="path70" /><path
         d="m 2829.22,2168 c -70.43,-10.11 -140.82,-29.02 -209.36,-55.75 38.08,-2.98 77.08,-12.56 115.87,-28.06 60.92,25.8 123.03,48.8 185.48,69.47 -29.4,8.11 -60.08,13.07 -91.99,14.34"
         style="fill:#73272e;fill-opacity:1;fill-rule:nonzero;stroke:none"
         id="path72" /><path
         d="m 2112.38,988.672 c 0,-113.902 -112.5,-206.223 -251.28,-206.223 -138.78,0 -251.29,92.321 -251.29,206.223 0,113.888 112.51,206.238 251.29,206.238 138.78,0 251.28,-92.35 251.28,-206.238"
         style="fill:#c23423;fill-opacity:1;fill-rule:nonzero;stroke:none"
         id="path74" /><path
         d="m 1974.35,916.559 c 57.58,20.55 103.16,69.82 128.52,128.291 -29.81,86.57 -126.73,150.06 -241.77,150.06 -103.75,0 -192.78,-51.62 -231.14,-125.24 72.41,-120.4 205.56,-209.92 344.39,-153.111"
         style="fill:#d54423;fill-opacity:1;fill-rule:nonzero;stroke:none"
         id="path76" /><path
         d="m 1953.12,1008.56 c 55.16,20.07 85.29,72.1 85.69,125.91 -45.48,37.34 -108.31,60.44 -177.71,60.44 -94.35,0 -176.51,-42.71 -219.48,-105.82 56.06,-94.371 210.44,-114.211 311.5,-80.53"
         style="fill:#ec531d;fill-opacity:1;fill-rule:nonzero;stroke:none"
         id="path78" /><path
         d="m 1861.1,1191.36 c -136.61,0 -247.75,-90.93 -247.75,-202.688 0,-111.762 111.14,-202.68 247.75,-202.68 136.6,0 247.74,90.918 247.74,202.68 0,111.758 -111.14,202.688 -247.74,202.688 z m 0,-412.462 c -140.51,0 -254.82,94.122 -254.82,209.774 0,115.668 114.31,209.758 254.82,209.758 140.51,0 254.82,-94.09 254.82,-209.758 0,-115.652 -114.31,-209.774 -254.82,-209.774"
         style="fill:#ac2c22;fill-opacity:1;fill-rule:nonzero;stroke:none"
         id="path80" /><path
         d="m 1793.85,985.359 c 0,-147.468 -203.61,-267.007 -454.78,-267.007 -251.18,0 -454.793,119.539 -454.793,267.007 0,147.471 203.613,267.011 454.793,267.011 251.17,0 454.78,-119.54 454.78,-267.011"
         style="fill:#c23423;fill-opacity:1;fill-rule:nonzero;stroke:none"
         id="path82" /><path
         d="m 1160.34,902.391 c -21.24,-21.231 -14.16,-84.942 28.31,-106.172 186.27,-83.328 450.56,-41.039 583.77,108.023 13.88,25.578 21.43,52.828 21.43,81.117 0,120.851 -136.81,222.901 -324.43,255.821 -12.76,-149.66 -206.87,-236.57 -309.08,-338.789"
         style="fill:#d54423;fill-opacity:1;fill-rule:nonzero;stroke:none"
         id="path84" /><path
         d="m 1429.32,895.309 c 127.89,-23.688 287.47,6.543 364.21,99.113 -6.41,112.668 -131.67,207.568 -304.53,243.008 -1.14,-87.23 -77.67,-146.8 -109.23,-228.87 -28.31,-56.619 -14.16,-99.091 49.55,-113.251"
         style="fill:#ec531d;fill-opacity:1;fill-rule:nonzero;stroke:none"
         id="path86" /><path
         d="m 1339.07,1248.83 c -248.83,0 -451.25,-118.2 -451.25,-263.471 0,-145.269 202.42,-263.461 451.25,-263.461 248.81,0 451.24,118.192 451.24,263.461 0,145.271 -202.43,263.471 -451.24,263.471 z m 0,-534.01 c -252.72,0 -458.328,121.371 -458.328,270.539 0,149.171 205.608,270.551 458.328,270.551 252.72,0 458.32,-121.38 458.32,-270.551 0,-149.168 -205.6,-270.539 -458.32,-270.539"
         style="fill:#ac2c22;fill-opacity:1;fill-rule:nonzero;stroke:none"
         id="path88" /><path
         d="m 1197.32,1841.52 c 88.74,153.67 119.58,565.66 62.11,634.61 -57.45,68.98 -525.996,373.12 -594.84,494.17 -68.848,121.03 -316.207,-2.54 551.24,-499.06 28.32,-22.58 97.12,-257.69 -37.33,-631.66 6.07,-21.43 18.82,1.94 18.82,1.94"
         style="fill:#82301c;fill-opacity:1;fill-rule:nonzero;stroke:none"
         id="path90" /><path
         d="m 631.926,2967.79 c 157.914,-186.29 353.937,-322.08 561.034,-433.81 -147.02,114.91 -471.944,337.11 -528.37,436.32 -28.102,49.4 -85.953,58.01 -85.567,17.19 l 0.297,-0.51 c 9.215,-12.5 43.446,-6.68 52.606,-19.19"
         style="fill:#c05b4c;fill-opacity:1;fill-rule:nonzero;stroke:none"
         id="path92" /><path
         d="m 1181.38,1839.5 c 1.7,-5.42 3.45,-6.12 3.98,-6.2 2.62,-0.39 7.24,5.29 9.57,9.57 39.84,68.99 72.6,202.33 85.54,347.99 12.46,140.39 3.37,251.68 -23.16,283.52 -21.63,25.97 -103.76,86.83 -198.87,157.31 -157.401,116.61 -353.295,261.76 -396.237,337.25 -12.558,22.1 -33.254,38.27 -52.691,41.28 -13.18,2.04 -22.739,-2.52 -26.246,-12.52 -3.868,-11.07 -7.754,-55.29 104.367,-160.62 109.18,-102.52 287.344,-224.83 529.557,-363.48 26.63,-21.2 100.95,-253.08 -35.81,-634.1 z m 3.13,-11.63 v 0 c -3.9,0.6 -6.73,4.19 -8.67,10.94 l -0.23,0.86 0.29,0.83 c 136.2,378.79 63.98,608.04 38.22,628.59 -540.268,309.2 -654.054,478.91 -636.054,530.42 4.399,12.54 16.442,18.56 32.289,16.14 21.028,-3.24 43.254,-20.5 56.622,-44.01 42.363,-74.5 237.75,-219.21 394.723,-335.54 95.4,-70.67 177.78,-131.7 199.84,-158.19 57.63,-69.16 28.55,-481.22 -61.83,-637.75 -1.19,-2.21 -7.75,-13.45 -15.2,-12.29"
         style="fill:#521d18;fill-opacity:1;fill-rule:nonzero;stroke:none"
         id="path94" /><path
         d="m 1086.16,1901.83 c 7.31,177.3 -156.555,556.53 -239.43,590.97 -82.921,34.43 -639.097,86.4 -756.2456,161.68 -117.1446,75.29 -278.9224,-148.94 719.8746,-186.28 35.571,-6.86 205.611,-183.19 260.031,-576.87 15.32,-16.12 15.77,10.5 15.77,10.5"
         style="fill:#82301c;fill-opacity:1;fill-rule:nonzero;stroke:none"
         id="path96" /><path
         d="m 20.0234,2656.35 c 238.0276,-82.47 483.8086,-132.82 733.5706,-141.83 -186.477,33.42 -568.352,79.09 -663.1096,139.96 -25.8672,16.64 -53.8828,18.66 -71.1446,11.3 -2.4296,-4.15 -2.621,-7.8 0.6836,-9.43"
         style="fill:#c05b4c;fill-opacity:1;fill-rule:nonzero;stroke:none"
         id="path98" /><path
         d="m 1072.99,1892.61 c 3.34,-3.35 5.21,-3.72 5.87,-3.73 2.8,0.02 4.47,7.7 4.57,12.97 3.28,79.64 -29.57,212.94 -85.7,347.99 -54.097,130.16 -113.781,224.53 -152.066,240.42 -31.223,12.97 -132.242,28.78 -249.184,47.05 -193.542,30.26 -434.402,67.93 -507.4566,114.88 -15.1679,9.72 -32.2773,15.01 -48.2148,14.92 -20.5781,-0.17 -35.11329,-9.49 -35.31641,-22.73 -0.33985,-23.51 40.94141,-60.7 157.90981,-94.55 144.075,-41.67 361.778,-68.24 647.059,-78.87 33.434,-6.42 206.879,-177.38 262.529,-578.35 z m 5.92,-9.22 -0.01,0.01 c -3.16,-0.04 -6.63,1.94 -10.5,6.03 l -0.6,0.65 -0.12,0.87 c -55.12,398.73 -225.473,568.33 -257.825,574.58 -285.328,10.61 -503.492,37.22 -648,79.02 C 60.0234,2574.03 -0.5,2611.38 0.00390625,2644.46 0.253906,2660.86 17.0117,2672.41 40.7773,2672.57 c 16.9922,0.16 35.1641,-5.47 51.1993,-15.77 72.1094,-46.3 312.3324,-83.89 505.3514,-114.05 117.305,-18.37 218.594,-34.2 250.453,-47.41 83.121,-34.53 248.559,-413.03 241.149,-593.6 -0.05,-1.82 -0.59,-18.26 -10.02,-18.35"
         style="fill:#521d18;fill-opacity:1;fill-rule:nonzero;stroke:none"
         id="path100" /><path
         d="m 1259.29,1908.03 c -215.66,164.15 -865.774,103.27 -943.212,-280.67 -77.445,-383.97 270.098,-547.97 420.309,-602.77 160.961,-58.731 659.983,-187.93 727.393,120.97 67.41,308.89 -9.78,614.23 -204.49,762.47"
         style="fill:#c23423;fill-opacity:1;fill-rule:nonzero;stroke:none"
         id="path102" /><path
         d="m 1091.35,982.172 c 188.66,-4.371 331.96,121.248 391.16,280.808 27.09,266.61 -53.28,515.67 -223.22,645.05 C 1043.63,2072.18 393.516,2011.3 316.078,1627.36 276.215,1429.74 348.941,1290.42 449.391,1194.24 627.73,1058 855.98,982.18 1091.35,982.172"
         style="fill:#d54423;fill-opacity:1;fill-rule:nonzero;stroke:none"
         id="path104" /><path
         d="m 421.344,1264.17 c 197.941,-217.23 527.023,-314.588 792.966,-219.96 188.85,64.86 262.71,258.52 263.19,456.58 -25.82,170.52 -100.5,317.6 -218.21,407.24 -200.8,152.85 -778.177,110.55 -919.306,-205.94 -48.339,-131.61 -31.031,-316.03 81.36,-437.92"
         style="fill:#ec531d;fill-opacity:1;fill-rule:nonzero;stroke:none"
         id="path106" /><path
         d="m 648.707,1664.88 c 197.684,53.28 421.313,124.31 586.943,259.13 -195.97,119.35 -649.478,91.49 -840.13,-134.16 49.562,-93.65 135.128,-154.37 253.187,-124.97"
         style="fill:#f47349;fill-opacity:1;fill-rule:nonzero;stroke:none"
         id="path108" /><path
         d="m 1188.21,1948.01 c -241.269,101.57 -721.241,38.81 -848.226,-245.92 -9.472,-25.78 -16.394,-53.67 -20.609,-82.64 18.262,73.13 50.707,140.01 117.227,188.44 226.265,159.5 494.691,204.14 751.608,140.12"
         style="fill:#f47349;fill-opacity:1;fill-rule:nonzero;stroke:none"
         id="path110" /><path
         d="m 1078.29,1975.92 c -270.634,51.59 -696.337,-43.17 -758.118,-349.41 -72.824,-361.12 230.402,-529.68 417.656,-597.96 29.418,-10.75 108.906,-37.831 210.902,-57.288 169.49,-32.282 461.26,-52.473 510.94,175.168 68.65,314.52 -11.02,612.14 -202.92,758.26 -42.71,32.49 -104.42,57.12 -178.46,71.23 z M 947.191,963.039 l -0.011,0.012 c -102.629,19.519 -182.606,46.799 -212.254,57.599 -189.75,69.25 -497.055,240.24 -422.973,607.52 62.82,311.49 493.926,408.2 767.907,356 75.33,-14.33 138.25,-39.51 181.96,-72.83 194.51,-148.06 275.4,-448.99 206.08,-766.68 C 1416.69,910.051 1119.69,930.148 947.191,963.039"
         style="fill:#ac2c22;fill-opacity:1;fill-rule:nonzero;stroke:none"
         id="path112" /><path
         d="m 531.133,1391.03 c 84.621,-49.72 116.726,-276.5 198.793,-299.29 82.094,-22.79 213.746,168.1 280.324,210.55 -176.145,-52.96 -479.117,88.74 -479.117,88.74"
         style="fill:#681519;fill-opacity:1;fill-rule:nonzero;stroke:none"
         id="path114" /><path
         d="m 661.188,1296.12 c 19.91,12.65 39.917,20.73 60.417,25.84 -105.82,29.51 -190.472,69.07 -190.472,69.07 41.133,-24.16 69.863,-90.14 97.93,-154.22 0.484,23.85 8.726,45.03 32.125,59.31"
         style="fill:#89191f;fill-opacity:1;fill-rule:nonzero;stroke:none"
         id="path116" /><path
         d="m 770.098,1225.43 c -26.512,26.91 -97.379,29.4 -112.239,-51.38 20.856,-41.48 43.414,-74.35 72.067,-82.31 63.289,-17.57 155.988,91.77 225.644,162.3 -89.828,32.2 -175.968,3.48 -185.472,-28.61"
         style="fill:#f04054;fill-opacity:1;fill-rule:nonzero;stroke:none"
         id="path118" /><path
         d="m 864.75,1242.69 c -32.953,-0.25 -71.352,-6.04 -93.105,-33.65 -4.157,6.16 -6.02,13.06 -5.848,20.2 -29.137,23.16 -93.828,21.57 -107.938,-55.19 20.856,-41.48 43.414,-74.35 72.067,-82.31 51.836,-14.41 123.414,56.38 185.914,121.24 -10.527,16.16 -26.391,27.42 -51.09,29.71"
         style="fill:#f3666c;fill-opacity:1;fill-rule:nonzero;stroke:none"
         id="path120" /><path
         d="m 837.836,1184.8 c -11.289,-22.04 -66.004,-48.97 -81.051,-53.2 78.547,4.82 81.051,53.2 81.051,53.2"
         style="fill:#f79baa;fill-opacity:1;fill-rule:nonzero;stroke:none"
         id="path122" /><path
         d="m 660.727,1174.44 c 24.601,-48.77 46.203,-73.46 69.941,-80.07 4.383,-1.2 9.074,-1.81 13.922,-1.78 l 0.012,0.02 c 52.156,0.36 120.015,71.01 179.89,133.31 8.946,9.29 17.66,18.38 26.071,26.94 -25.079,8.51 -50.907,12.7 -76.856,12.52 -55.777,-0.42 -95.137,-21.03 -101.008,-40.71 l -1.308,-4.48 -3.262,3.33 c -9.859,10.01 -26.035,16.15 -42.223,16.05 -33.109,-0.23 -57.426,-24.58 -65.179,-65.13 z m 83.918,-87.34 h -0.02 c -5.363,-0.04 -10.555,0.64 -15.41,2 -32.695,9.08 -56.613,49.51 -73.793,83.72 l -0.418,0.79 0.148,0.91 c 8.086,43.89 34.528,70.28 70.723,70.53 16.035,0.1 32.156,-5.5 43.102,-14.84 10.851,23.08 54.441,40.32 104.707,40.67 27.988,0.2 55.843,-4.59 82.808,-14.26 l 4.059,-1.46 -3.028,-3.08 c -9.32,-9.42 -19.046,-19.52 -29.054,-29.95 -60.633,-63.1 -129.367,-134.62 -183.824,-135.03"
         style="fill:#df334b;fill-opacity:1;fill-rule:nonzero;stroke:none"
         id="path124" /><path
         d="m 550.84,1379.37 c 32.183,-30.64 56.519,-86.17 80.168,-140.2 30.086,-68.58 58.484,-133.34 99.66,-144.8 4.383,-1.2 9.074,-1.81 13.922,-1.78 52.168,0.38 120.055,71.04 179.926,133.36 26.328,27.4 51.461,53.56 72.043,69.83 -22.125,-5.16 -46.934,-7.9 -73.985,-8.1 -141.058,-1.02 -312.91,66.6 -371.734,91.69 z M 744.625,1087.1 c -5.352,-0.05 -10.539,0.63 -15.41,2 -43.711,12.15 -72.621,78.08 -103.203,147.9 -27.617,62.99 -56.153,128.12 -96.254,151.67 l 2.539,4.86 c 2.191,-1 219.226,-101.61 390.23,-100.35 32.625,0.25 61.86,4.19 86.923,11.73 l 18.97,5.68 -16.7,-10.62 c -21.861,-13.94 -51.677,-44.99 -83.243,-77.83 -60.641,-63.11 -129.375,-134.63 -183.852,-135.04"
         style="fill:#a33a1f;fill-opacity:1;fill-rule:nonzero;stroke:none"
         id="path126" /><path
         d="m 886.66,1676.87 c -41.066,-150.1 31.586,-314.76 165.83,-343.21 134.27,-28.44 279.35,90.17 320.49,240.16 41.11,150.1 -34.63,294.74 -168.86,323.22 -134.32,28.44 -276.448,-70.15 -317.46,-220.17"
         style="fill:#d54423;fill-opacity:1;fill-rule:nonzero;stroke:none"
         id="path128" /><g
         id="g130"><g
           id="g132"
           clip-path="url(#clipPath136)"><path
             d="m 1097.34,1371.46 c -15.49,0 -30.99,1.8 -46.3,5.54 -117.032,28.48 -178.106,159.75 -136.337,293.03 36.285,115.77 138.287,195.03 241.137,195.03 15.52,0 31.05,-1.8 46.39,-5.55 116.91,-28.6 177.95,-159.77 136.32,-293.04 -36.37,-115.74 -138.35,-195.01 -241.21,-195.01 m 41.31,384.87 c -67.01,0 -135.46,-51.06 -163.611,-127.43 -33.262,-89.95 1.977,-180.85 78.641,-203.08 11.52,-3.34 23.33,-4.94 35.17,-4.94 66.94,-0.01 135.51,51.03 163.79,127.4 33.2,89.94 -2.04,180.83 -78.73,203.1 -11.55,3.35 -23.38,4.95 -35.26,4.95"
             style="fill:url(#radialGradient144);fill-opacity:1;fill-rule:nonzero;stroke:none"
             id="path146" /></g></g><path
         d="m 1174.07,1859.78 c -107.84,10.28 -217.308,-71.85 -254.613,-190.88 -40.961,-130.75 18.629,-259.76 132.793,-287.63 8.78,-2.2 17.88,-3.65 26.84,-4.57 107.95,-10.29 217.44,71.9 254.69,190.94 19.75,63.27 16.89,128.1 -8.43,182.55 -25.08,54.29 -69.36,91.61 -124.41,105 -8.83,2.21 -17.94,3.67 -26.87,4.59 z m -96.14,-491.77 c -9.43,0.94 -19.16,2.54 -28.24,4.73 -119.374,29.15 -181.979,163.08 -139.514,298.44 38.551,123.12 152.484,207.88 265.054,197.3 9.47,-0.84 19.07,-2.58 28.28,-4.74 57.82,-14.16 104.29,-53.08 130.59,-109.67 26.37,-56.29 29.43,-123.43 9.03,-188.69 -38.57,-123.2 -152.6,-208.05 -265.2,-197.37"
         style="fill:#c48b6a;fill-opacity:1;fill-rule:nonzero;stroke:none"
         id="path148" /><g
         id="g150"><g
           id="g152"
           clip-path="url(#clipPath156)"><path
             d="m 1088.85,1420.88 c -11.84,0 -23.65,1.6 -35.17,4.94 -76.664,22.23 -111.903,113.13 -78.641,203.08 28.151,76.37 96.601,127.43 163.611,127.43 11.88,0 23.71,-1.6 35.26,-4.95 76.69,-22.27 111.93,-113.16 78.73,-203.1 -28.28,-76.37 -96.85,-127.41 -163.79,-127.4 m 8.67,32.58 c -0.26,-9.71 5.83,-18.86 15.59,-22.12 2.4,-0.79 4.84,-1.17 7.23,-1.17 9.53,0 18.4,5.98 21.52,15.44 1.63,4.9 1.48,9.98 -0.11,14.51 34.19,12.61 64.01,41.71 77.63,80.27 22.06,61.84 -5.81,124.69 -62.05,140.29 -8.62,2.39 -17.42,3.53 -26.2,3.53 -0.68,0 -1.36,0 -2.04,-0.02 -0.41,15.71 -10.59,30.23 -26.46,35.52 -4.06,1.35 -8.18,1.98 -12.23,1.98 -16.13,0 -31.14,-10.13 -36.47,-26.17 -4.33,-12.95 -1.29,-26.57 6.83,-36.41 -19.75,-15.2 -35.85,-36.57 -44.9,-62.08 -21.934,-61.75 5.83,-124.52 62.09,-140.25 6.45,-1.79 13,-2.88 19.57,-3.32"
             style="fill:url(#radialGradient166);fill-opacity:1;fill-rule:nonzero;stroke:none"
             id="path168" /></g></g><path
         d="m 1015.86,1597.03 c -21.934,-61.75 5.83,-124.52 62.09,-140.25 56.27,-15.61 119.61,21.88 141.43,83.61 22.06,61.84 -5.81,124.69 -62.05,140.29 -56.32,15.59 -119.57,-21.89 -141.47,-83.65"
         style="fill:#211c1d;fill-opacity:1;fill-rule:nonzero;stroke:none"
         id="path170" /><g
         id="g172"><g
           id="g174"
           clip-path="url(#clipPath178)"><g
             id="g180"
             clip-path="url(#clipPath184)"><path
               d="m 1060,1659 v 1 h -1 v 1 h -1 v 2 h -1 v 1 h -1 v 2 h -1 v 3 h -1 v 3 h -1 v 3 h -1 v 18 h 1 v 3 h 1 v 3 h 1 v 2 h 1 v 1 h 1 v 2 h 1 v 2 h 1 v 1 h 1 v 1 h 1 v 1 h 1 v 1 h 1 v 1 h 1 v 1 h 1 v 1 h 1 v 1 h 1 v 1 h 1 v 1 h 2 v 1 h 2 v 1 h 2 v 1 h 2 v 1 h 3 v 1 h 5 v 1 h 14 v -1 h 4 v -1 h 3 v -1 h 2 v -1 h 2 v -1 h 2 v -1 h 1 v -1 h 2 v -1 h 1 v -1 h 1 v -1 h 1 v -1 h 1 v -1 h 1 v -1 h 1 v -1 h 1 v -1 h 1 v -1 h 1 v -2 h 1 v -2 h 1 v -2 h 1 v -2 h 1 v -2 h 1 v -4 h 1 v -4 h 1 v -4 h -6 v -1 h -7 v -1 h -6 v -1 h -4 v -1 h -3 v -1 h -4 v -1 h -4 v -1 h -3 v -1 h -2 v -1 h -2 v -1 h -2 v -1 h -2 v -1 h -3 v -1 h -2 v -1 h -2 v -1 h -2 v -1 h -1 v -1 h -2 v -1 h -2 v -1 h -1 v -1 h -2 v -1 h -1 v -1 h -2 v -1 h -1 v -1 h -2 v -1"
               style="fill:url(#radialGradient194);fill-opacity:1;fill-rule:nonzero;stroke:none"
               id="path196" /></g></g></g><path
         d="m 1090.75,1645.01 c -4.07,0 -8.22,0.65 -12.3,2.01 -7.19,2.38 -13.21,6.66 -17.69,12.09 20.18,15.52 44.16,24.6 68.33,25.08 0.11,-4.31 -0.51,-8.71 -1.96,-13.03 -5.31,-16.04 -20.28,-26.15 -36.38,-26.15"
         style="fill:#bab8b7;fill-opacity:1;fill-rule:nonzero;stroke:none"
         id="path198" /><g
         id="g200"><g
           id="g202"
           clip-path="url(#clipPath206)"><path
             d="m 1120.34,1430.17 c -2.39,0 -4.83,0.38 -7.23,1.17 -9.76,3.26 -15.85,12.41 -15.59,22.12 2.21,-0.15 4.44,-0.22 6.65,-0.22 12.73,0 25.43,2.4 37.58,6.88 1.59,-4.53 1.74,-9.61 0.11,-14.51 -3.12,-9.46 -11.99,-15.44 -21.52,-15.44"
             style="fill:url(#radialGradient216);fill-opacity:1;fill-rule:nonzero;stroke:none"
             id="path218" /></g></g><path
         d="m 1104.17,1453.24 c -2.21,0 -4.44,0.07 -6.65,0.22 0.05,2.17 0.43,4.36 1.14,6.52 3.16,9.45 11.98,15.42 21.48,15.42 2.4,0 4.85,-0.38 7.26,-1.19 6.99,-2.3 12.11,-7.66 14.35,-14.09 -12.15,-4.48 -24.85,-6.88 -37.58,-6.88"
         style="fill:#9c9a9b;fill-opacity:1;fill-rule:nonzero;stroke:none"
         id="path220" /><path
         d="m 757.711,1617.34 c -96.168,-99.46 -236.754,-130.15 -303.32,-46.98 -66.547,83.16 -33.899,248.66 62.242,348.17 96.172,99.52 228.094,112.6 294.656,29.47 66.559,-83.21 42.563,-231.21 -53.578,-330.66"
         style="fill:#d54423;fill-opacity:1;fill-rule:nonzero;stroke:none"
         id="path222" /><g
         id="g224"><g
           id="g226"
           clip-path="url(#clipPath230)"><path
             d="m 566.129,1550.95 c -39.703,0 -75.684,14.17 -101.527,43.51 -63.797,72.39 -41.766,209.94 49.16,307.26 54.125,57.8 120.453,88.32 178.754,88.32 39.675,0 75.644,-14.15 101.476,-43.46 63.93,-72.33 41.926,-209.96 -49.027,-307.17 -54.152,-57.9 -120.516,-88.46 -178.836,-88.46 m 105.734,335.58 c -41.222,0 -88.867,-23.78 -126.558,-67.62 -59.563,-69.39 -71.645,-162.67 -27.137,-208.33 16.398,-16.79 38.18,-24.82 62.141,-24.82 41.222,0 88.886,23.79 126.601,67.65 59.637,69.3 71.797,162.54 27.153,208.28 -16.426,16.8 -38.223,24.84 -62.2,24.84"
             style="fill:url(#radialGradient238);fill-opacity:1;fill-rule:nonzero;stroke:none"
             id="path240" /></g></g><path
         d="m 791.09,1943.54 c -30,34.06 -75.199,48.31 -127.059,39.86 -52.066,-8.38 -104.496,-38.54 -147.687,-84.67 -81.289,-86.8 -107.949,-208.83 -61.817,-283.63 3.891,-6.2 8.243,-12.18 13.063,-17.6 62.258,-70.65 185.531,-50.58 274.812,44.83 81.246,86.91 107.836,208.84 61.774,283.56 -3.918,6.14 -8.258,12.16 -13.086,17.65 z m -279.863,-39 c 44.558,47.62 98.878,78.79 152.82,87.26 54.105,8.68 101.301,-6.35 132.926,-42.14 4.961,-5.75 9.675,-11.97 13.675,-18.59 47.997,-78.07 20.856,-204.64 -63.187,-294.47 -92.418,-98.83 -220.648,-119.08 -285.723,-45.23 -4.98,5.61 -9.629,12.02 -13.703,18.58 -48.07,78.04 -20.933,204.69 63.192,294.59"
         style="fill:#c48b6a;fill-opacity:1;fill-rule:nonzero;stroke:none"
         id="path242" /><g
         id="g244"><g
           id="g246"
           clip-path="url(#clipPath250)"><path
             d="m 580.309,1585.76 c -23.961,0 -45.743,8.03 -62.141,24.82 -44.508,45.66 -32.426,138.94 27.137,208.33 37.691,43.84 85.336,67.62 126.558,67.62 23.977,0 45.774,-8.04 62.2,-24.84 44.644,-45.74 32.484,-138.98 -27.153,-208.28 -37.715,-43.86 -85.379,-67.65 -126.601,-67.65 m 39.886,26.91 c 0.86,-2.19 2.164,-4.17 3.922,-5.81 3.09,-2.88 7.078,-4.28 11.254,-4.28 5.774,0 11.906,2.67 16.531,7.81 4.735,5.19 6.868,11.74 6.325,17.64 10.957,6.89 21.503,15.83 31.07,26.71 41.269,46.97 48.691,112.49 16.508,146.41 -8.903,9.4 -19.922,15.37 -32.086,18.09 -0.246,7.76 -3.141,15.01 -8.727,20.26 -5.234,4.85 -11.969,7.21 -19.023,7.21 -9.793,0 -20.203,-4.54 -28.086,-13.24 -7.356,-8.07 -10.992,-18.11 -10.805,-27.46 -12.133,-7.13 -23.832,-16.76 -34.344,-28.74 -41.214,-46.87 -48.714,-112.48 -16.464,-146.34 12.718,-13.35 29.679,-19.78 48.089,-19.78 5.184,0 10.485,0.51 15.836,1.52"
             style="fill:url(#radialGradient260);fill-opacity:1;fill-rule:nonzero;stroke:none"
             id="path262" /></g></g><path
         d="m 689.297,1654.74 c -41.285,-46.98 -100.781,-57.67 -133.027,-23.81 -32.25,33.86 -24.75,99.47 16.464,146.34 41.297,47.09 100.965,57.78 133.071,23.88 32.183,-33.92 24.761,-99.44 -16.508,-146.41"
         style="fill:#211c1d;fill-opacity:1;fill-rule:nonzero;stroke:none"
         id="path264" /><g
         id="g266"><g
           id="g268"
           clip-path="url(#clipPath272)"><path
             d="m 607.078,1806.01 c -0.187,9.35 3.449,19.39 10.805,27.46 7.883,8.7 18.293,13.24 28.086,13.24 7.054,0 13.789,-2.36 19.023,-7.21 5.586,-5.25 8.481,-12.5 8.727,-20.26 -5.137,1.15 -10.477,1.72 -15.946,1.72 -16.394,0 -33.957,-5.1 -50.695,-14.95"
             style="fill:url(#radialGradient282);fill-opacity:1;fill-rule:nonzero;stroke:none"
             id="path284" /></g></g><path
         d="m 634.813,1778.12 c -7.059,0 -13.786,2.36 -18.993,7.23 -5.691,5.33 -8.586,12.75 -8.742,20.66 16.738,9.85 34.301,14.95 50.695,14.95 5.469,0 10.809,-0.57 15.946,-1.72 0.304,-9.46 -3.321,-19.66 -10.774,-27.87 -7.894,-8.7 -18.332,-13.25 -28.132,-13.25"
         style="fill:#bab8b7;fill-opacity:1;fill-rule:nonzero;stroke:none"
         id="path286" /><g
         id="g288"><g
           id="g290"
           clip-path="url(#clipPath294)"><path
             d="m 635.371,1602.58 c -4.176,0 -8.164,1.4 -11.254,4.28 -1.758,1.64 -3.062,3.62 -3.922,5.81 12.66,2.38 25.61,7.55 38.032,15.36 0.543,-5.9 -1.59,-12.45 -6.325,-17.64 -4.625,-5.14 -10.757,-7.81 -16.531,-7.81"
             style="fill:url(#radialGradient304);fill-opacity:1;fill-rule:nonzero;stroke:none"
             id="path306" /></g></g><path
         d="m 620.195,1612.67 c -2.711,6.91 -0.941,15.86 5.153,22.58 4.652,5.12 10.789,7.79 16.562,7.79 4.164,0 8.141,-1.39 11.227,-4.26 3.019,-2.81 4.711,-6.62 5.09,-10.75 -12.422,-7.81 -25.372,-12.98 -38.032,-15.36"
         style="fill:#9c9a9b;fill-opacity:1;fill-rule:nonzero;stroke:none"
         id="path308" /><path
         d="m 1407.11,805.57 c 69.98,211.65 216.56,435.24 333.34,312.1 116.77,-123.139 131.63,-798.299 174.1,-985.139 72.18,27.61 220.81,70.078 271.76,-55.199 -193.21,-14.8632 -369.43,42.457 -369.43,42.457 6.37,324.859 -159.87,731.332 -133.76,876.871 -208.06,-259.031 -281.9,-208.93 -276.01,-191.09"
         style="fill:#c23423;fill-opacity:1;fill-rule:nonzero;stroke:none"
         id="path310" /><path
         d="m 1914.55,132.531 c -42.47,186.84 -57.33,862 -174.1,985.139 -116.78,123.14 -263.36,-100.45 -333.34,-312.1 -1.05,-3.179 0.46,-7.41 4.83,-10.711 29.34,2.641 56.13,26.403 80.42,42.602 76.17,61.648 113.96,138.73 201.01,182.259 -4.3,-10.03 -8.01,-20.2 -11.38,-30.439 -19.55,-151.492 141.15,-549.98 134.89,-869.492 0,0 176.22,-57.3202 369.43,-42.457 -50.95,125.277 -199.58,82.809 -271.76,55.199"
         style="fill:#d54423;fill-opacity:1;fill-rule:nonzero;stroke:none"
         id="path312" /><path
         d="m 1407.11,805.57 c 69.98,211.65 216.56,435.24 333.34,312.1 116.77,-123.139 131.63,-798.299 174.1,-985.139 72.18,27.61 220.81,70.078 271.76,-55.199 -53.05,33.129 -174.62,21.0977 -252.69,28.668 -68.62,6.672 -97.79,34.832 -97.79,34.832 6.37,324.828 -167.66,755.258 -141.55,900.798 -128.38,-18.77 -293.06,-253.9 -287.17,-236.06"
         style="fill:#ec531d;fill-opacity:1;fill-rule:nonzero;stroke:none"
         id="path314" /><path
         d="m 1729.09,1089.49 c 27.56,-23.96 48.17,-52.89 64.87,-84.68 -15.08,51.25 -32.67,90.89 -53.51,112.86 -100.66,106.16 -223.49,-45.37 -300.28,-224.772 78.13,105.711 168.78,296.702 288.92,196.592"
         style="fill:#f47349;fill-opacity:1;fill-rule:nonzero;stroke:none"
         id="path316" /><path
         d="m 2178.57,93.5313 c -25.86,47.8087 -68.56,65.6677 -113.96,68.3907 24.13,-33.692 73.4,-51.774 113.96,-68.3907"
         style="fill:#f47349;fill-opacity:1;fill-rule:nonzero;stroke:none"
         id="path318" /><path
         d="m 2188.32,78.1484 c -23.32,57.3316 -69.3,86.3826 -136.68,86.3826 -38.88,0 -84.46,-9.781 -135.52,-29.062 -13.52,61.152 -24.2,171.383 -36.54,298.773 -25.95,267.899 -58.25,601.298 -137.55,684.928 -22.55,23.78 -47.29,35.83 -73.56,35.83 -88.89,0 -181.11,-137.94 -240.02,-284.781 -8.43,-20.969 -16.16,-42.129 -23.12,-63.098 l 1.72,-0.551 2.39,-0.871 c 55.14,166.301 159.58,344.951 259.03,344.951 25.02,0 48.71,-11.6 70.4,-34.47 78.28,-82.55 110.5,-415.129 136.38,-682.36 12.52,-129.238 23.33,-240.859 37.17,-301.761 l 0.56,-2.45 2.34,0.891 c 51.51,19.691 97.37,29.68 136.32,29.68 64.34,0 108.57,-27.211 131.5,-80.8987 -20.24,-1.4922 -41.23,-2.2305 -62.43,-2.2305 -154.2,0 -286.03,39.4802 -301.62,44.3402 3.12,175.07 -42.71,370.031 -83.17,542.089 -33.6,142.84 -62.6,266.211 -50.66,332.79 l 1.51,8.41 -5.34,-6.66 c -93.89,-116.86 -158.45,-168.239 -199.82,-190.309 0.38,-1.441 29.95,12.75 48.33,27.019 38.23,29.7 87.61,77.559 149.83,154.309 -8.66,-68.98 19.5,-188.73 51.91,-326.547 40.53,-172.351 86.45,-367.703 83.03,-542.652 l -0.03,-1.61 1.53,-0.5 c 1.38,-0.46 140.32,-45.0386 304.5,-45.0386 22.37,0 44.49,0.8281 65.77,2.4688 l 2.98,0.2304 -1.14,2.7578"
         style="fill:#ac2c22;fill-opacity:1;fill-rule:nonzero;stroke:none"
         id="path320" /><path
         d="m 1823.7,988.941 c 312.08,58.039 371.61,120.339 483.09,0 111.5,-120.32 373.38,-592.812 435.32,-833.461 77.87,104.399 253.05,-1.781 277.83,-84.9409 -155.73,-33.6407 -333.01,55.8519 -333.01,55.8519 -138.02,491.941 -383.67,598.89 -440.3,825.398 -506.11,-46.008 -422.93,37.152 -422.93,37.152"
         style="fill:#c23423;fill-opacity:1;fill-rule:nonzero;stroke:none"
         id="path322" /><path
         d="m 2255.57,972.57 -0.5,-0.89 c 3.79,0.308 7.6,0.609 11.38,0.89 -3.63,0 -7.27,0 -10.88,0"
         style="fill:#d54423;fill-opacity:1;fill-rule:nonzero;stroke:none"
         id="path324" /><path
         d="m 2742.11,155.48 c -61.94,240.649 -323.82,713.141 -435.32,833.461 -111.48,120.339 -171.01,58.039 -483.09,0 0,0 -1.95,-1.941 -3.45,-5.082 132.9,-59.07 291.6,-23.929 434.82,-12.179 l 0.5,0.89 c 3.61,0 7.25,0 10.88,0 -3.78,-0.281 -7.59,-0.582 -11.38,-0.89 -3.86,-6.59 -6.81,-13.168 -8.94,-19.93 l 0.5,0.039 c 56.63,-226.508 302.28,-333.457 440.3,-825.398 0,0 177.28,-89.4926 333.01,-55.8519 -24.78,83.1599 -199.96,189.3399 -277.83,84.9409"
         style="fill:#d54423;fill-opacity:1;fill-rule:nonzero;stroke:none"
         id="path326" /><path
         d="M 3016.83,79.2109 C 2983.19,160.77 2817.3,256.281 2742.11,155.48 c -61.94,240.649 -323.82,713.141 -435.32,833.461 -111.48,120.339 -171.01,58.039 -483.09,0 0,0 16.51,-38.589 430.05,-1.492 56.63,-226.5 315.95,-365.629 453.98,-857.578 0,0 0.71,-0.742 2.32,-2.09 101.15,-22.281 202.43,-62.7107 306.78,-48.5701"
         style="fill:#ec531d;fill-opacity:1;fill-rule:nonzero;stroke:none"
         id="path328" /><path
         d="m 2157.62,1034.22 c 87.41,-2.73 148.08,-58.939 206.77,-119.06 -21.69,30.93 -41.27,56.16 -57.6,73.781 -111.28,120.119 -170.81,58.269 -481.38,0.34 112.81,-16.89 219.07,48.479 332.21,44.939"
         style="fill:#f47349;fill-opacity:1;fill-rule:nonzero;stroke:none"
         id="path330" /><path
         d="m 2819.27,198.391 c 42.82,-37.84 97.48,-55.36 154.06,-61.391 -41.11,37.332 -101.17,66.012 -154.06,61.391"
         style="fill:#f47349;fill-opacity:1;fill-rule:nonzero;stroke:none"
         id="path332" /><path
         d="M 3021.67,71.0391 C 3004.3,129.41 2912.74,200.699 2830.66,200.699 c -36.04,0 -66.29,-14.219 -87.73,-41.187 -28.77,109.379 -100.87,276.199 -198.29,458.679 -89.33,167.309 -182.17,313.329 -236.52,372 -46.26,49.939 -84.59,69.379 -136.67,69.379 -40.69,0 -90.04,-11.68 -158.35,-27.84 -37.22,-8.81 -81.19,-19.22 -132.9,-29.86 -18,-3.698 -54.72,-13.14 -53.49,-14.198 75.98,14.198 137.61,28.778 187.22,40.528 68.08,16.11 117.26,27.76 157.52,27.76 50.95,0 88.53,-19.14 134.01,-68.241 106.81,-115.297 371.99,-588.25 434.89,-832.699 l 0.94,-3.668 2.28,3.027 c 21.12,28.332 50.44,42.703 87.09,42.703 79.75,0 168.53,-68.352 186.95,-125.1914 -22.55,-4.7109 -46.9,-7.1015 -72.4,-7.1015 -125.56,-0.0078 -246.38,57.7809 -256.75,62.8519 -81.29,289.218 -199.78,445.48 -295.01,571.05 -65.39,86.188 -121.82,160.629 -145.06,253.528 l -0.39,1.511 -1.54,-0.14 c -101.2,-9.199 -186.21,-13.86 -252.65,-13.86 -26.43,0 -48.85,0.75 -67.89,2.02 0.52,-1.191 43.17,-5.648 67.89,-5.648 66.21,0 150.8,4.617 251.44,13.73 23.63,-92.91 80.04,-167.293 145.31,-253.34 95.14,-125.433 213.52,-281.531 294.62,-570.594 l 0.24,-0.777 0.69,-0.371 c 1.27,-0.621 127.55,-63.5898 259.1,-63.5898 26.49,0 51.76,2.5586 75.12,7.6015 l 1.9,0.418 -0.56,1.8594"
         style="fill:#ac2c22;fill-opacity:1;fill-rule:nonzero;stroke:none"
         id="path334" /><path
         d="m 2100.9,1073.3 c 273.49,163.42 408.07,294.5 539.87,211.47 131.78,-83.01 489.77,-629.438 544.95,-913.969 80.82,54.73 225.97,-5.641 269.81,-114.992 -157.79,-14.688 -315.79,91.402 -315.79,91.402 -162.91,567.559 -581.4,818.279 -570.44,884.639 -132.81,-109.59 -573.91,-221.61 -468.4,-158.55"
         style="fill:#c23423;fill-opacity:1;fill-rule:nonzero;stroke:none"
         id="path336" /><path
         d="m 3185.72,370.801 c -55.18,284.531 -413.17,830.959 -544.95,913.969 -131.8,83.03 -266.38,-48.05 -539.87,-211.47 -3.04,-1.82 -5.58,-3.49 -7.74,-5.03 166.7,16.45 336.56,89.19 482.72,176.46 -2.54,-4.51 -5.06,-9.03 -7.48,-13.61 l 0.9,0.73 c -10.96,-66.36 407.53,-317.08 570.44,-884.639 0,0 158,-106.09 315.79,-91.402 -43.84,109.351 -188.99,169.722 -269.81,114.992"
         style="fill:#d54423;fill-opacity:1;fill-rule:nonzero;stroke:none"
         id="path338" /><path
         d="m 3448.77,270.582 c -50.39,99.879 -185.94,152.43 -263.05,100.219 -55.18,284.531 -413.17,830.959 -544.95,913.969 -131.8,83.03 -274.18,-35.65 -539.87,-211.47 -57.69,-38.18 335.76,86.15 468.58,195.75 -10.89,-65.85 413.03,-281.698 574.01,-894.409 79.64,-82.559 197.26,-91.071 305.28,-104.059"
         style="fill:#ec531d;fill-opacity:1;fill-rule:nonzero;stroke:none"
         id="path340" /><path
         d="m 3358.6,362.898 c -52.14,29.454 -112.84,37.954 -158.58,16.032 2.77,-2.641 5.95,-4.668 9.63,-5.938 46.42,-20.113 97.55,-15.762 148.95,-10.094"
         style="fill:#f47349;fill-opacity:1;fill-rule:nonzero;stroke:none"
         id="path342" /><path
         d="m 2658.51,1271.89 c -6.27,5.06 -12.24,9.41 -17.74,12.88 -131.8,83.03 -266.38,-48.05 -539.87,-211.47 -10.78,-6.45 -15.77,-11.03 -16.05,-14.01 161.54,83.48 276.53,164.82 458.85,234.1 23.4,8.9 89.2,-12.54 114.81,-21.5"
         style="fill:#f47349;fill-opacity:1;fill-rule:nonzero;stroke:none"
         id="path344" /><path
         d="m 3141.31,348.359 c 7.87,-5.168 98.81,-63.57 207.86,-84.55 36.47,-7.008 71.35,-9.161 103.76,-6.407 -26.54,63.637 -91.17,115.239 -161.65,128.817 -39.96,7.672 -77.09,1.679 -104.54,-16.918 l -2.27,-1.539 -0.52,2.699 c -24.8,127.871 -113.55,321.758 -243.52,531.93 -115.96,187.589 -236.78,340.639 -300.62,380.859 -18.31,11.52 -36.6,18.94 -55.93,22.65 -86.89,16.73 -182.11,-44.33 -326.22,-136.76 -45.99,-29.49 -98.12,-62.93 -155.83,-97.41 -15.41,-9.2 -15.32,-12.49 -15.25,-12.83 0.06,-0.36 0.83,-1.07 3.31,-1.54 43.71,-8.41 368.99,85.72 478.27,175.89 l 3.73,3.08 -0.79,-4.77 c -3.19,-19.36 33.91,-57.25 90.11,-114.59 128.18,-130.841 366.72,-374.322 480.1,-768.611 z m 207.18,-88.109 c -114.32,21.988 -208.82,84.832 -209.75,85.461 l -0.56,0.359 -0.19,0.641 c -113.02,393.801 -351.33,637.039 -479.37,767.719 -55.24,56.36 -89.96,91.81 -91.29,113.47 -112.77,-89.83 -434.48,-182.5 -478.13,-174.11 -3.72,0.72 -5.81,2.22 -6.2,4.47 -0.48,2.72 1.02,7.06 16.98,16.59 57.64,34.45 109.75,67.87 155.73,97.34 144.85,92.9 240.54,154.27 328.86,137.27 19.78,-3.79 38.47,-11.37 57.16,-23.14 64.26,-40.5 185.54,-194.01 301.79,-382.019 129.29,-209.09 217.88,-402.192 243.47,-530.492 28.01,17.961 65.16,23.621 104.98,15.953 72.48,-13.93 138.88,-67.492 165.25,-133.27 l 0.91,-2.262 -2.42,-0.218 c -33.44,-3.114 -69.51,-1.012 -107.22,6.238"
         style="fill:#ac2c22;fill-opacity:1;fill-rule:nonzero;stroke:none"
         id="path346" /></g></g></svg>
